<?xml version="1.0" encoding="UTF-8"?>
<svg id="Capa_1" xmlns="http://www.w3.org/2000/svg" version="1.1" viewBox="0 0 1080 179.5">
  <!-- Generator: Adobe Illustrator 29.2.0, SVG Export Plug-In . SVG Version: 2.1.0 Build 108)  -->
  <defs>
    <style>
      .st0 {
        fill: #fff;
      }
    </style>
  </defs>
  <path class="st0" d="M235.1,94.1c7.3,2.6,7.4,2.9,7.5,10,0,2.5,0,5,0,7.5,0,3.7.3,7.3-3.4,10-1.4,1-1.8,3.4-2.3,5.3-4.7,17.4-22.7,34.3-45.6,34.1-34.3-.2-68.6,0-103,0-21.3-.1-38.8-13.2-45.3-33.5-.9-2.9-1.8-5.4-4-7.7-1.4-1.4-1.7-4-1.9-6.2-.3-3-.1-6,0-8.9.1-7.5.6-8,7.9-10.7,6.3-13,16.1-22.4,30.5-26.3,5.4-1.5,11.2-2.2,16.9-2.2,31.6-.2,63.2,0,94.7-.1,21.6,0,37.8,8.8,48.1,28.7ZM141.1,133.7h0c5.2,0,10.4,0,15.7,0,7.2,0,14.4.2,21.6,0,8.4-.3,15.4-5.7,17.9-13.4,2.7-8.3.1-16.6-6.7-22-4.1-3.2-8.9-4.3-14-4.3-7.7,0-15.4,0-23.1,0-15.4,0-30.8,0-46.3,0-7,0-13.4,1.9-17.9,7.5-5.1,6.4-5.7,13.8-2.4,21.1,3.2,7.2,9.3,11,17.2,11.1,12.7.2,25.4,0,38.1,0Z"/>
  <path class="st0" d="M310.4,175.6V1c7.4-.9,14.7-.3,22.9-.5,0,18.5,0,36.3,0,54.2,0,17.9,0,35.8,0,54.6,9.3-8.1,17-17.1,25.4-25.4,8.3-8.2,16.7-16.3,25.3-24.8h30.8c-16.6,17.1-33.3,32.6-49.3,49.4,16.6,22.1,33.1,44.1,50.1,66.7h-28.9c-12.2-16.5-24.7-33.2-37.5-50.5-4.9,4.9-9.9,9.4-14.3,14.4-1.4,1.6-1.9,4.5-2,6.8-.2,9.4,0,18.9,0,29.2-7.4.8-14.5.3-22.5.4Z"/>
  <path class="st0" d="M765.3,135.6c6.9,2.4,12.9,4.5,19.4,6.8-3.2,11.7-10,20.3-19.2,27.1-11.1,8.2-23.8,10.6-37.4,9.7-11.2-.7-21.4-4.1-30.5-10.7-13-9.4-20.3-22.3-22.7-37.9-2.7-17.7-.8-34.7,9.4-50,22.4-33.6,64-29,82.4-12.4,10.5,9.4,15.9,21.4,18,35.1.8,5.1.9,10.4,1.1,15.6,0,1.4-.6,2.8-1.1,5h-85.4c-2.9,13,6.3,27.7,20.3,33,9.2,3.5,18.5,3,27.7-.5,9.4-3.6,13.9-11.5,18-20.7ZM761,104.9c-.6-17.4-12-28.4-29.5-28.9-17.6-.5-30.7,10.9-32.6,28.9h62.1Z"/>
  <path class="st0" d="M414.3,117.2c0-21.2,7.4-39,25.1-51.2,33.9-23.5,86.6-7.3,93.3,41.6,2.4,18-.9,34.6-11.8,49.3-9.7,13.1-22.8,20.2-39,22-13.2,1.4-25.9.1-37.5-6.5-19-10.8-28.5-27.7-30.2-49.2-.2-2,0-4,0-6ZM437.9,117c.2,3.2.2,6.5.6,9.7,1.9,17,14.4,29.6,31.4,31.9,15,2.1,30.6-6.9,36.4-21.6,5.1-13,5.2-26.3-.1-39.3-9.3-22.6-38.7-28.7-56.5-11.9-8.9,8.4-11.9,19.2-11.7,31.1Z"/>
  <path class="st0" d="M654.5,175.4h-22.3c-.1-2.8-.4-5.4-.4-8.1,0-19.9,0-39.8-.2-59.7,0-5.1-1-10.4-2.1-15.4-1.5-6.5-6-11-12.1-13.2-18.7-6.6-36.1,1.2-38.7,22.8-.7,5.4-.8,10.9-.9,16.4-.1,16.2,0,32.3,0,48.5,0,2.7,0,5.4,0,8.5h-22.5V59.4h21.3c2,4.3.1,9.1,1.3,14.2,1.3-1.4,2.2-2.4,3.1-3.5,11.2-13.8,26.2-16.4,42.5-13.3,16.5,3.1,25.4,14.6,29.6,30.1,1.2,4.3,1.6,8.8,1.7,13.3.2,23.1,0,46.3,0,69.4,0,1.7-.2,3.4-.3,5.8Z"/>
  <path class="st0" d="M907.7,92.7c-5.5,2.4-10.4,4.6-15.4,6.7-1.5.7-3.2,1.1-5,1.7-.9-1.9-1.6-3.4-2.3-4.9-9.3-20.6-34.7-25.8-51.7-10.8-8,7.1-11.4,16.2-12.2,26.3-1.1,13.8.8,26.8,11.6,37,16.6,15.8,43.2,11.3,53.5-9.1.8-1.5,1.5-3,2.7-5.3,6.5,2.8,12.8,5.5,19.9,8.6-1.3,3-2.1,5.8-3.6,8.2-9.7,16.4-23.5,26.5-43.1,28-24.4,1.9-43.1-7.2-56.1-27.8-5.6-8.8-8.2-18.5-8.6-28.9-.6-13.4.8-26.4,8-38.1,10.7-17.5,25.9-27.6,46.8-28.6,14.1-.6,27.2,1.7,38.4,11,8.2,6.8,14.2,15.1,17,26.1Z"/>
  <path class="st0" d="M935.4,80.1h-21.8v-20.6c2-.2,4.1-.6,6.2-.5,10.2.6,17.8-6.4,17.4-17.6-.2-5.9,0-11.9,0-17.6,6-2,14.1-2.1,21.6-.3v35.3h23.8c1.8,7.2.7,13.8.9,21.1h-23.8c-.3,2.5-.7,4.4-.7,6.3,0,17.9,0,35.8,0,53.7,0,1.2,0,2.5.1,3.7.7,7.9,4.3,11.7,12.2,12.4,3.7.3,7.4,0,11.4,0,1.5,6.3.8,12.4.5,18.9-11,3.4-21.7,3.6-31.9-1.6-11.8-6-15.6-16.8-15.8-29.2-.2-18.4,0-36.8,0-55.2,0-2.7,0-5.3,0-8.7Z"/>
  <path class="st0" d="M95.8,51.2h-14.5c-1.1-8.9,2.7-15.7,8.3-21.5,5-5.1,11.3-8.3,18.6-8.3,21.1-.2,42.3-.3,63.4,0,14.5.2,28.2,14.4,27.2,29.8-2.3.1-4.6.3-7,.3-2.5,0-4.9,0-7.2,0-.6-.7-1.1-1-1.2-1.5-3.6-10.4-6.9-12.8-18-12.9-5.4,0-10.8,0-16.7,0-.2,3-.3,5.2-.4,7.4-.1,1.9-.3,3.9-.5,6.4h-15.4c-.2-4.4-.5-8.7-.8-13.6-7.5,0-14.7-.4-21.8.1-5.6.4-9.7,3.6-11.9,8.9-.7,1.6-1.3,3.2-2,4.9Z"/>
  <path class="st0" d="M1033.7,40.2c-5.4,4.4-10.9,6.6-17.6,4.5-5.7-1.9-9.6-6.3-10-11.7-.4-5.9,2.8-10.9,9.1-13,4.2-1.4,8.7-1.8,13.1-2.6,1.7-.3,3.3-.8,4.8-1.1.8-5.7,0-7.6-3.2-8.9-5.7-2.2-10.4,0-15.5,7.5-2.1-.5-4.5-1-7.7-1.7,1-2.6,1.5-4.8,2.7-6.5,5.6-8.5,20.9-10.6,28.6-4,3.4,2.9,5.1,6.7,5.1,11.1,0,9.7,0,19.4,0,29.7-2.2.3-4.3.6-6.4.9-1.1-1.5-2-2.8-3-4.2ZM1033.5,23.6c-4.4.6-8.3,1-12.1,1.8-4.4.9-6.5,3.6-6,7,.5,3.6,4,5.8,8.4,5.4,7.2-.8,10.3-5.1,9.7-14.2Z"/>
</svg>